<svg width="143" height="19" viewBox="0 0 143 19" fill="none" xmlns="http://www.w3.org/2000/svg">
<path d="M14.2852 12.2227C14.2305 13.4102 13.9102 14.4609 13.3242 15.375C12.7383 16.2812 11.9141 16.9844 10.8516 17.4844C9.79688 17.9844 8.58984 18.2344 7.23047 18.2344C4.98828 18.2344 3.22266 17.5039 1.93359 16.043C0.644531 14.582 0 12.5195 0 9.85547V9.01172C0 7.33984 0.289062 5.87891 0.867188 4.62891C1.45312 3.37109 2.29297 2.40234 3.38672 1.72266C4.48047 1.03516 5.74609 0.691406 7.18359 0.691406C9.25391 0.691406 10.918 1.23828 12.1758 2.33203C13.4336 3.41797 14.1484 4.91797 14.3203 6.83203H10.2188C10.1875 5.79297 9.92578 5.04688 9.43359 4.59375C8.94141 4.14062 8.19141 3.91406 7.18359 3.91406C6.16016 3.91406 5.41016 4.29688 4.93359 5.0625C4.45703 5.82812 4.20703 7.05078 4.18359 8.73047V9.9375C4.18359 11.7578 4.41016 13.0586 4.86328 13.8398C5.32422 14.6211 6.11328 15.0117 7.23047 15.0117C8.17578 15.0117 8.89844 14.7891 9.39844 14.3438C9.89844 13.8984 10.1641 13.1914 10.1953 12.2227H14.2852Z" fill="white"/>
<path d="M20.2148 18H16.2539V5.32031H20.2148V18ZM16.0195 2.05078C16.0195 1.48828 16.2227 1.02734 16.6289 0.667969C17.0352 0.308594 17.5625 0.128906 18.2109 0.128906C18.8594 0.128906 19.3867 0.308594 19.793 0.667969C20.1992 1.02734 20.4023 1.48828 20.4023 2.05078C20.4023 2.61328 20.1992 3.07422 19.793 3.43359C19.3867 3.79297 18.8594 3.97266 18.2109 3.97266C17.5625 3.97266 17.0352 3.79297 16.6289 3.43359C16.2227 3.07422 16.0195 2.61328 16.0195 2.05078Z" fill="white"/>
<path d="M26.2852 5.32031L26.4141 6.80859C27.2891 5.66016 28.4961 5.08594 30.0352 5.08594C31.3555 5.08594 32.3398 5.48047 32.9883 6.26953C33.6445 7.05859 33.9844 8.24609 34.0078 9.83203V18H30.0469V9.99609C30.0469 9.35547 29.918 8.88672 29.6602 8.58984C29.4023 8.28516 28.9336 8.13281 28.2539 8.13281C27.4805 8.13281 26.9062 8.4375 26.5312 9.04688V18H22.582V5.32031H26.2852Z" fill="white"/>
<path d="M42.3398 18.2344C40.3945 18.2344 38.8203 17.6562 37.6172 16.5C36.4141 15.3359 35.8125 13.8242 35.8125 11.9648V11.6367C35.8125 10.3398 36.0508 9.19531 36.5273 8.20312C37.0117 7.21094 37.7148 6.44531 38.6367 5.90625C39.5586 5.35938 40.6523 5.08594 41.918 5.08594C43.6992 5.08594 45.1055 5.64062 46.1367 6.75C47.168 7.85156 47.6836 9.39062 47.6836 11.3672V12.9023H39.832C39.9727 13.6133 40.2812 14.1719 40.7578 14.5781C41.2344 14.9844 41.8516 15.1875 42.6094 15.1875C43.8594 15.1875 44.8359 14.75 45.5391 13.875L47.3438 16.0078C46.8516 16.6875 46.1523 17.2305 45.2461 17.6367C44.3477 18.0352 43.3789 18.2344 42.3398 18.2344ZM41.8945 8.13281C40.7383 8.13281 40.0508 8.89844 39.832 10.4297H43.8164V10.125C43.832 9.49219 43.6719 9.00391 43.3359 8.66016C43 8.30859 42.5195 8.13281 41.8945 8.13281Z" fill="white"/>
<path d="M53.0156 5.32031L53.1445 6.80859C54.043 5.66016 55.25 5.08594 56.7656 5.08594C58.3672 5.08594 59.4492 5.72266 60.0117 6.99609C60.8711 5.72266 62.1133 5.08594 63.7383 5.08594C66.3086 5.08594 67.6289 6.64062 67.6992 9.75V18H63.7383V9.99609C63.7383 9.34766 63.6289 8.875 63.4102 8.57812C63.1914 8.28125 62.793 8.13281 62.2148 8.13281C61.4336 8.13281 60.8516 8.48047 60.4688 9.17578L60.4805 9.33984V18H56.5195V10.0195C56.5195 9.35547 56.4141 8.875 56.2031 8.57812C55.9922 8.28125 55.5898 8.13281 54.9961 8.13281C54.2383 8.13281 53.6602 8.48047 53.2617 9.17578V18H49.3125V5.32031H53.0156Z" fill="white"/>
<path d="M77.0977 18C76.957 17.7422 76.832 17.3633 76.7227 16.8633C75.9961 17.7773 74.9805 18.2344 73.6758 18.2344C72.4805 18.2344 71.4648 17.875 70.6289 17.1562C69.793 16.4297 69.375 15.5195 69.375 14.4258C69.375 13.0508 69.8828 12.0117 70.8984 11.3086C71.9141 10.6055 73.3906 10.2539 75.3281 10.2539H76.5469V9.58594C76.5469 8.42188 76.043 7.83984 75.0352 7.83984C74.0977 7.83984 73.6289 8.30078 73.6289 9.22266H69.6797C69.6797 7.99609 70.1992 7 71.2383 6.23438C72.2852 5.46875 73.6172 5.08594 75.2344 5.08594C76.8516 5.08594 78.1289 5.48047 79.0664 6.26953C80.0039 7.05859 80.4844 8.14062 80.5078 9.51562V15.1289C80.5234 16.293 80.7031 17.1836 81.0469 17.8008V18H77.0977ZM74.625 15.4219C75.1172 15.4219 75.5234 15.3164 75.8438 15.1055C76.1719 14.8945 76.4062 14.6562 76.5469 14.3906V12.3633H75.3984C74.0234 12.3633 73.3359 12.9805 73.3359 14.2148C73.3359 14.5742 73.457 14.8672 73.6992 15.0938C73.9414 15.3125 74.25 15.4219 74.625 15.4219Z" fill="white"/>
<path d="M87 12.2109V18H82.8867V0.9375H89.6953C91 0.9375 92.1523 1.17969 93.1523 1.66406C94.1602 2.14062 94.9375 2.82422 95.4844 3.71484C96.0391 4.59766 96.3164 5.60156 96.3164 6.72656C96.3164 8.39062 95.7188 9.72266 94.5234 10.7227C93.3359 11.7148 91.7031 12.2109 89.625 12.2109H87ZM87 9.03516H89.6953C90.4922 9.03516 91.0977 8.83594 91.5117 8.4375C91.9336 8.03906 92.1445 7.47656 92.1445 6.75C92.1445 5.95312 91.9297 5.31641 91.5 4.83984C91.0703 4.36328 90.4844 4.12109 89.7422 4.11328H87V9.03516Z" fill="white"/>
<path d="M105.891 16.6289C105.055 17.6992 103.926 18.2344 102.504 18.2344C101.113 18.2344 100.059 17.832 99.3398 17.0273C98.6289 16.2148 98.2734 15.0508 98.2734 13.5352V5.32031H102.223V13.5586C102.223 14.6445 102.75 15.1875 103.805 15.1875C104.711 15.1875 105.355 14.8633 105.738 14.2148V5.32031H109.711V18H106.008L105.891 16.6289Z" fill="white"/>
<path d="M116.051 18H112.09V0H116.051V18Z" fill="white"/>
<path d="M125.133 14.4375C125.133 14.1016 124.957 13.832 124.605 13.6289C124.254 13.4258 123.586 13.2148 122.602 12.9961C121.617 12.7773 120.805 12.4922 120.164 12.1406C119.523 11.7812 119.035 11.3477 118.699 10.8398C118.363 10.332 118.195 9.75 118.195 9.09375C118.195 7.92969 118.676 6.97266 119.637 6.22266C120.598 5.46484 121.855 5.08594 123.41 5.08594C125.082 5.08594 126.426 5.46484 127.441 6.22266C128.457 6.98047 128.965 7.97656 128.965 9.21094H125.004C125.004 8.19531 124.469 7.6875 123.398 7.6875C122.984 7.6875 122.637 7.80469 122.355 8.03906C122.074 8.26562 121.934 8.55078 121.934 8.89453C121.934 9.24609 122.105 9.53125 122.449 9.75C122.793 9.96875 123.34 10.1484 124.09 10.2891C124.848 10.4297 125.512 10.5977 126.082 10.793C127.988 11.4492 128.941 12.625 128.941 14.3203C128.941 15.4766 128.426 16.418 127.395 17.1445C126.371 17.8711 125.043 18.2344 123.41 18.2344C122.324 18.2344 121.355 18.0391 120.504 17.6484C119.652 17.2578 118.988 16.7266 118.512 16.0547C118.035 15.3828 117.797 14.6758 117.797 13.9336H121.488C121.504 14.5195 121.699 14.9492 122.074 15.2227C122.449 15.4883 122.93 15.6211 123.516 15.6211C124.055 15.6211 124.457 15.5117 124.723 15.293C124.996 15.0742 125.133 14.7891 125.133 14.4375Z" fill="white"/>
<path d="M136.934 18.2344C134.988 18.2344 133.414 17.6562 132.211 16.5C131.008 15.3359 130.406 13.8242 130.406 11.9648V11.6367C130.406 10.3398 130.645 9.19531 131.121 8.20312C131.605 7.21094 132.309 6.44531 133.23 5.90625C134.152 5.35938 135.246 5.08594 136.512 5.08594C138.293 5.08594 139.699 5.64062 140.73 6.75C141.762 7.85156 142.277 9.39062 142.277 11.3672V12.9023H134.426C134.566 13.6133 134.875 14.1719 135.352 14.5781C135.828 14.9844 136.445 15.1875 137.203 15.1875C138.453 15.1875 139.43 14.75 140.133 13.875L141.938 16.0078C141.445 16.6875 140.746 17.2305 139.84 17.6367C138.941 18.0352 137.973 18.2344 136.934 18.2344ZM136.488 8.13281C135.332 8.13281 134.645 8.89844 134.426 10.4297H138.41V10.125C138.426 9.49219 138.266 9.00391 137.93 8.66016C137.594 8.30859 137.113 8.13281 136.488 8.13281Z" fill="white"/>
</svg>
